<svg xmlns="http://www.w3.org/2000/svg" viewBox="0 0 64 64"><path d="M50,22.99908H44v-20a1,1,0,0,0-1.44-.9l-3.68,1.79-3.69-1.79a1.0415,1.0415,0,0,0-.88,0l-3.68,1.79-3.68-1.79a1.0415,1.0415,0,0,0-.88,0l-3.69,1.79-3.68-1.79a1.0415,1.0415,0,0,0-.88,0l-3.69,1.79-3.69-1.79a1.01039,1.01039,0,0,0-1.44.9v33c.10205.58185-.18048,1.19135.27,1.68A5.06863,5.06863,0,0,0,14,40.999l6,.00006v20a1.00972,1.00972,0,0,0,1.44.89991l3.69-1.78992,3.69,1.79a1.04157,1.04157,0,0,0,.88,0l3.68-1.79,3.69,1.79a1.019,1.019,0,0,0,.87,0l3.69-1.79,3.69,1.79a1.019,1.019,0,0,0,.87,0l3.69-1.79,3.68,1.79a1.01022,1.01022,0,0,0,1.44-.9V27.99908A5.00181,5.00181,0,0,0,50,22.99908Zm-35-12H29a1.00011,1.00011,0,0,1-.00005,2H15A1.00012,1.00012,0,0,1,15,10.99908Zm0,8a1.00011,1.00011,0,0,1,0-2c.08313.00184,8.02789-.00134,8.00006,0a1.00011,1.00011,0,0,1-.00012,2Zm38,40.4-2.69-1.3a1.019,1.019,0,0,0-.87,0l-3.69,1.79-3.68-1.79a1.04152,1.04152,0,0,0-.88,0l-3.68,1.79-3.69-1.79a1.01906,1.01906,0,0,0-.87,0l-3.69,1.79c-.21661-.064-4.00873-2.05451-4.13-1.89008a23.63911,23.63911,0,0,0-3.13,1.4v-31.4a3.01805,3.01805,0,0,1,3-3H50a3.00879,3.00879,0,0,1,3,3Z"/><path d="M35 29.9989H27a1.0001 1.0001 0 00.00006 2H35A1.0001 1.0001 0 0035 29.9989zM35 34.9989H27a1.0001 1.0001 0 00.00006 2H35A1.0001 1.0001 0 0035 34.9989zM42.5 40.9989H46a1.0001 1.0001 0 00-.00006-2H44v-2a1 1 0 10-2 0v2.05054a3.495 3.495 0 00.50012 6.94946H43.5a1.50016 1.50016 0 01-.00006 3H40a1.0001 1.0001 0 00.00006 2H42v2a1 1 0 002 0V50.94836a3.495 3.495 0 00-.50012-6.94946H42.5A1.50016 1.50016 0 0142.5 40.9989z"/></svg>