<?xml version="1.0" encoding="utf-8"?>
<!-- Generator: Adobe Illustrator 23.0.3, SVG Export Plug-In . SVG Version: 6.00 Build 0)  -->
<svg version="1.1" id="Icons" xmlns="http://www.w3.org/2000/svg" xmlns:xlink="http://www.w3.org/1999/xlink" x="0px" y="0px"
	 viewBox="0 0 32 32" style="enable-background:new 0 0 32 32;" xml:space="preserve">
<style type="text/css">
	.st0{fill:none;stroke:#000000;stroke-width:2;stroke-linecap:round;stroke-linejoin:round;stroke-miterlimit:10;}
</style>
<path d="M27,9h-1c0,0,0,0,0,0c0-0.2-0.1-0.4-0.2-0.6l0,0c0,0,0,0,0,0c0,0,0,0-0.1-0.1l-6-6c0,0,0,0,0,0c0,0,0,0,0,0
	C19.5,2.1,19.3,2,19,2H7C6.4,2,6,2.4,6,3v6H5c-1.7,0-3,1.3-3,3v11c0,0.6,0.4,1,1,1h3v5c0,0.6,0.4,1,1,1h18c0.6,0,1-0.4,1-1v-5h3
	c0.6,0,1-0.4,1-1V12C30,10.3,28.7,9,27,9z M8,4h10v5c0,0.6,0.4,1,1,1h5v3H8V4z M24,28H8v-8h16V28z"/>
</svg>
