<?xml version="1.0" encoding="utf-8"?>
<!-- Generator: Adobe Illustrator 23.0.3, SVG Export Plug-In . SVG Version: 6.00 Build 0)  -->
<svg version="1.1" id="Icons" xmlns="http://www.w3.org/2000/svg" xmlns:xlink="http://www.w3.org/1999/xlink" x="0px" y="0px"
	 viewBox="0 0 32 32" style="enable-background:new 0 0 32 32;" xml:space="preserve">
<style type="text/css">
	.st0{fill:none;stroke:#000000;stroke-width:2;stroke-linecap:round;stroke-linejoin:round;stroke-miterlimit:10;}
</style>
<path d="M27,8h-8.9l-2.3-3.5C15.7,4.2,15.3,4,15,4H5C3.3,4,2,5.3,2,7v18c0,1.7,1.3,3,3,3h22c1.7,0,3-1.3,3-3V11C30,9.3,28.7,8,27,8z
	 M11,19H7c-0.6,0-1-0.4-1-1s0.4-1,1-1h4c0.6,0,1,0.4,1,1S11.6,19,11,19z M14,15H7c-0.6,0-1-0.4-1-1s0.4-1,1-1h7c0.6,0,1,0.4,1,1
	S14.6,15,14,15z M28,23.6L19.4,10H27c0.6,0,1,0.4,1,1V23.6z"/>
</svg>
