<?xml version="1.0" encoding="UTF-8" standalone="no"?> <svg width="512" height="512" viewBox="0 0 512 512" fill="none" xmlns="http://www.w3.org/2000/svg">
<path d="M405.333 53.333H362.667V42.667C362.686 39.8531 362.149 37.0632 361.085 34.458C360.022 31.8528 358.453 29.4837 356.47 27.4872C354.488 25.4907 352.129 23.9061 349.531 22.8248C346.934 21.7436 344.147 21.1869 341.333 21.1869C338.52 21.1869 335.733 21.7436 333.136 22.8248C330.538 23.9061 328.179 25.4907 326.197 27.4872C324.214 29.4837 322.645 31.8528 321.582 34.458C320.518 37.0632 319.981 39.8531 320 42.667V53.333H192V42.667C192.019 39.8531 191.482 37.0632 190.418 34.458C189.355 31.8528 187.786 29.4837 185.803 27.4872C183.821 25.4907 181.462 23.9061 178.864 22.8248C176.267 21.7436 173.48 21.1869 170.666 21.1869C167.853 21.1869 165.066 21.7436 162.469 22.8248C159.871 23.9061 157.512 25.4907 155.53 27.4872C153.547 29.4837 151.978 31.8528 150.915 34.458C149.851 37.0632 149.314 39.8531 149.333 42.667V53.333H106.667C89.6988 53.3515 73.4309 60.1003 61.4326 72.0986C49.4343 84.0969 42.6855 100.365 42.667 117.333V405.333C42.6855 422.301 49.4343 438.569 61.4326 450.567C73.4309 462.566 89.6988 469.314 106.667 469.333H405.333C422.301 469.314 438.569 462.566 450.567 450.567C462.566 438.569 469.314 422.301 469.333 405.333V117.333C469.314 100.365 462.566 84.0969 450.567 72.0986C438.569 60.1003 422.301 53.3515 405.333 53.333V53.333ZM426.667 405.333C426.661 410.989 424.411 416.412 420.411 420.411C416.412 424.411 410.989 426.661 405.333 426.667H106.667C101.011 426.661 95.5881 424.411 91.5886 420.411C87.5891 416.412 85.3393 410.989 85.333 405.333V117.333C85.3396 111.677 87.5894 106.255 91.5889 102.255C95.5884 98.2559 101.011 96.0063 106.667 96H149.333V106.667C149.372 112.3 151.636 117.689 155.633 121.658C159.629 125.627 165.034 127.855 170.666 127.855C176.299 127.855 181.704 125.627 185.7 121.658C189.697 117.689 191.961 112.3 192 106.667V96H320V106.667C320.039 112.3 322.303 117.689 326.3 121.658C330.296 125.627 335.701 127.855 341.333 127.855C346.966 127.855 352.371 125.627 356.367 121.658C360.364 117.689 362.628 112.3 362.667 106.667V96H405.333C410.989 96.0063 416.412 98.2559 420.411 102.255C424.411 106.255 426.66 111.677 426.667 117.333V405.333Z" fill="black"/>
<path d="M360.01 222.9L301.354 214.374L275.135 161.228C273.372 157.659 270.646 154.654 267.264 152.552C263.883 150.451 259.981 149.338 256 149.338C252.019 149.338 248.117 150.451 244.736 152.552C241.354 154.654 238.628 157.659 236.865 161.228L210.646 214.37L151.99 222.9C148.051 223.472 144.35 225.135 141.307 227.701C138.263 230.267 135.999 233.633 134.77 237.419C133.541 241.205 133.396 245.26 134.351 249.124C135.307 252.989 137.325 256.508 140.177 259.285L182.6 300.646L172.579 359.057C171.905 362.981 172.343 367.016 173.842 370.705C175.342 374.393 177.844 377.589 181.065 379.93C184.286 382.271 188.098 383.664 192.069 383.951C196.041 384.239 200.013 383.41 203.538 381.557L256 353.974L308.458 381.552C311.983 383.405 315.955 384.234 319.927 383.946C323.898 383.659 327.71 382.266 330.931 379.925C334.152 377.584 336.654 374.388 338.153 370.7C339.653 367.011 340.091 362.976 339.417 359.052L329.4 300.646L371.827 259.281C374.678 256.504 376.695 252.984 377.65 249.12C378.604 245.256 378.459 241.202 377.229 237.417C376 233.631 373.735 230.265 370.692 227.7C367.649 225.135 363.949 223.472 360.01 222.9V222.9ZM291.583 277.926C289.106 280.341 287.252 283.321 286.182 286.611C285.112 289.901 284.856 293.401 285.438 296.811L290.052 323.671L265.927 310.988C262.865 309.38 259.458 308.54 256 308.54C252.542 308.54 249.135 309.38 246.073 310.988L221.948 323.671L226.563 296.811C227.144 293.401 226.889 289.9 225.818 286.611C224.747 283.321 222.894 280.341 220.417 277.926L200.906 258.9L227.885 254.978C231.307 254.481 234.558 253.16 237.356 251.128C240.155 249.095 242.417 246.413 243.948 243.312L256 218.875L268.052 243.313C269.583 246.414 271.845 249.096 274.644 251.128C277.442 253.161 280.692 254.482 284.115 254.979L311.094 258.901L291.583 277.926Z" fill="black"/>
</svg>
