<?xml version="1.0" encoding="UTF-8" standalone="no"?> <svg width="64" height="64" viewBox="0 0 64 64" fill="none" xmlns="http://www.w3.org/2000/svg">
<path d="M6.88989 11.09C7.59117 11.0884 8.28525 11.2314 8.92876 11.5102C9.57227 11.7889 10.1514 12.1974 10.6299 12.71C12.3244 14.3357 14.5817 15.2434 16.9299 15.2434C19.2781 15.2434 21.5354 14.3357 23.2299 12.71C23.7105 12.1988 24.2908 11.7913 24.9348 11.5128C25.5789 11.2343 26.2732 11.0906 26.9749 11.0906C27.6766 11.0906 28.3709 11.2343 29.015 11.5128C29.659 11.7913 30.2393 12.1988 30.7199 12.71C32.4144 14.3357 34.6717 15.2434 37.0199 15.2434C39.3681 15.2434 41.6254 14.3357 43.3199 12.71C43.8005 12.1988 44.3808 11.7913 45.0248 11.5128C45.6689 11.2343 46.3632 11.0906 47.0649 11.0906C47.7666 11.0906 48.4609 11.2343 49.105 11.5128C49.749 11.7913 50.3293 12.1988 50.8099 12.71C52.4923 14.3563 54.7561 15.2725 57.1099 15.26C57.6403 15.26 58.149 15.0493 58.5241 14.6742C58.8992 14.2992 59.1099 13.7905 59.1099 13.26C59.1099 12.7296 58.8992 12.2209 58.5241 11.8458C58.149 11.4707 57.6403 11.26 57.1099 11.26C56.4061 11.2624 55.7095 11.1187 55.064 10.8381C54.4186 10.5576 53.8383 10.1462 53.3599 9.63003C51.6678 7.99974 49.4096 7.08887 47.0599 7.08887C44.7102 7.08887 42.452 7.99974 40.7599 9.63003C40.2808 10.1439 39.7011 10.5537 39.0568 10.8339C38.4125 11.1141 37.7175 11.2587 37.0149 11.2587C36.3123 11.2587 35.6173 11.1141 34.973 10.8339C34.3287 10.5537 33.749 10.1439 33.2699 9.63003C31.5731 8.00892 29.3166 7.1043 26.9699 7.1043C24.6231 7.1043 22.3667 8.00892 20.6699 9.63003C20.1917 10.1437 19.6128 10.5533 18.9694 10.8334C18.3259 11.1135 17.6317 11.258 16.9299 11.258C16.2281 11.258 15.5339 11.1135 14.8904 10.8334C14.247 10.5533 13.6681 10.1437 13.1899 9.63003C11.5023 7.99295 9.24105 7.08128 6.88989 7.09003C6.35946 7.09003 5.85075 7.30074 5.47568 7.67582C5.10061 8.05089 4.88989 8.5596 4.88989 9.09003C4.88989 9.62046 5.10061 10.1292 5.47568 10.5042C5.85075 10.8793 6.35946 11.09 6.88989 11.09Z" fill="black"/>
<path d="M57.1099 25.1402C56.4067 25.1444 55.7104 25.0026 55.0649 24.7238C54.4194 24.4449 53.8388 24.0351 53.3599 23.5202C51.6654 21.8945 49.4081 20.9868 47.0599 20.9868C44.7117 20.9868 42.4544 21.8945 40.7599 23.5202C40.2793 24.0315 39.699 24.4389 39.055 24.7175C38.4109 24.996 37.7166 25.1396 37.0149 25.1396C36.3132 25.1396 35.6189 24.996 34.9748 24.7175C34.3308 24.4389 33.7505 24.0315 33.2699 23.5202C31.5731 21.8991 29.3166 20.9945 26.9699 20.9945C24.6231 20.9945 22.3667 21.8991 20.6699 23.5202C20.1909 24.0325 19.6118 24.441 18.9684 24.7202C18.3251 24.9995 17.6312 25.1436 16.9299 25.1436C16.2286 25.1436 15.5347 24.9995 14.8913 24.7202C14.248 24.441 13.6689 24.0325 13.1899 23.5202C11.4991 21.8905 9.23824 20.9861 6.88989 21.0002C6.35946 21.0002 5.85075 21.2109 5.47568 21.586C5.10061 21.9611 4.88989 22.4698 4.88989 23.0002C4.88989 23.5307 5.10061 24.0394 5.47568 24.4144C5.85075 24.7895 6.35946 25.0002 6.88989 25.0002C7.59154 24.9962 8.28636 25.1381 8.93022 25.417C9.57407 25.6959 10.1529 26.1057 10.6299 26.6202C12.322 28.2505 14.5802 29.1614 16.9299 29.1614C19.2796 29.1614 21.5378 28.2505 23.2299 26.6202C23.7105 26.109 24.2908 25.7015 24.9348 25.423C25.5789 25.1445 26.2732 25.0008 26.9749 25.0008C27.6766 25.0008 28.3709 25.1445 29.015 25.423C29.659 25.7015 30.2393 26.109 30.7199 26.6202C32.4167 28.2413 34.6731 29.146 37.0199 29.146C39.3666 29.146 41.6231 28.2413 43.3199 26.6202C43.799 26.1063 44.3787 25.6965 45.023 25.4164C45.6673 25.1362 46.3623 24.9916 47.0649 24.9916C47.7675 24.9916 48.4625 25.1362 49.1068 25.4164C49.7511 25.6965 50.3308 26.1063 50.8099 26.6202C52.4975 28.2573 54.7587 29.169 57.1099 29.1602C57.643 29.1602 58.1542 28.9485 58.5312 28.5715C58.9081 28.1946 59.1199 27.6833 59.1199 27.1502C59.1199 26.6171 58.9081 26.1059 58.5312 25.729C58.1542 25.352 57.643 25.1402 57.1099 25.1402Z" fill="black"/>
<path d="M57.1099 38.9999C56.4067 39.0041 55.7104 38.8623 55.0649 38.5834C54.4194 38.3046 53.8388 37.8948 53.3599 37.3799C51.6631 35.7588 49.4066 34.8542 47.0599 34.8542C44.7132 34.8542 42.4567 35.7588 40.7599 37.3799C40.2793 37.8912 39.699 38.2986 39.055 38.5771C38.4109 38.8556 37.7166 38.9993 37.0149 38.9993C36.3132 38.9993 35.6189 38.8556 34.9748 38.5771C34.3308 38.2986 33.7505 37.8912 33.2699 37.3799C31.5731 35.7588 29.3166 34.8542 26.9699 34.8542C24.6231 34.8542 22.3667 35.7588 20.6699 37.3799C20.1917 37.8935 19.6128 38.3032 18.9694 38.5832C18.3259 38.8633 17.6317 39.0079 16.9299 39.0079C16.2281 39.0079 15.5339 38.8633 14.8904 38.5832C14.247 38.3032 13.6681 37.8935 13.1899 37.3799C11.5023 35.7428 9.24105 34.8312 6.88989 34.8399C6.35946 34.8399 5.85075 35.0506 5.47568 35.4257C5.10061 35.8008 4.88989 36.3095 4.88989 36.8399C4.88989 37.3703 5.10061 37.879 5.47568 38.2541C5.85075 38.6292 6.35946 38.8399 6.88989 38.8399C7.59154 38.8359 8.28636 38.9778 8.93022 39.2567C9.57407 39.5356 10.1529 39.9453 10.6299 40.4599C12.322 42.0902 14.5802 43.0011 16.9299 43.0011C19.2796 43.0011 21.5378 42.0902 23.2299 40.4599C23.7105 39.9486 24.2908 39.5412 24.9348 39.2627C25.5789 38.9842 26.2732 38.8405 26.9749 38.8405C27.6766 38.8405 28.3709 38.9842 29.015 39.2627C29.659 39.5412 30.2393 39.9486 30.7199 40.4599C32.4167 42.081 34.6731 42.9856 37.0199 42.9856C39.3666 42.9856 41.6231 42.081 43.3199 40.4599C43.7998 39.9473 44.3797 39.5387 45.0239 39.2594C45.6681 38.98 46.3628 38.8359 47.0649 38.8359C47.767 38.8359 48.4617 38.98 49.1059 39.2594C49.7501 39.5387 50.33 39.9473 50.8099 40.4599C52.4975 42.097 54.7587 43.0087 57.1099 42.9999C57.6403 42.9999 58.149 42.7892 58.5241 42.4141C58.8992 42.039 59.1099 41.5303 59.1099 40.9999C59.1099 40.4695 58.8992 39.9608 58.5241 39.5857C58.149 39.2106 57.6403 38.9999 57.1099 38.9999Z" fill="black"/>
<path d="M57.1099 52.9099C56.4071 52.9117 55.7115 52.7688 55.0663 52.4901C54.4212 52.2113 53.8403 51.8028 53.3599 51.2899C51.6654 49.6642 49.4081 48.7565 47.0599 48.7565C44.7117 48.7565 42.4544 49.6642 40.7599 51.2899C40.2793 51.8011 39.699 52.2086 39.055 52.4871C38.4109 52.7656 37.7166 52.9093 37.0149 52.9093C36.3132 52.9093 35.6189 52.7656 34.9748 52.4871C34.3308 52.2086 33.7505 51.8011 33.2699 51.2899C31.5754 49.6642 29.3181 48.7565 26.9699 48.7565C24.6217 48.7565 22.3644 49.6642 20.6699 51.2899C20.1909 51.8022 19.6118 52.2106 18.9684 52.4899C18.3251 52.7691 17.6312 52.9132 16.9299 52.9132C16.2286 52.9132 15.5347 52.7691 14.8913 52.4899C14.248 52.2106 13.6689 51.8022 13.1899 51.2899C11.5075 49.6436 9.2437 48.7274 6.88989 48.7399C6.35946 48.7399 5.85075 48.9506 5.47568 49.3257C5.10061 49.7007 4.88989 50.2094 4.88989 50.7399C4.88989 51.2703 5.10061 51.779 5.47568 52.1541C5.85075 52.5292 6.35946 52.7399 6.88989 52.7399C7.59219 52.7377 8.28727 52.8815 8.93108 53.1621C9.57489 53.4427 10.1534 53.854 10.6299 54.3699C12.322 56.0002 14.5802 56.911 16.9299 56.911C19.2796 56.911 21.5378 56.0002 23.2299 54.3699C23.709 53.856 24.2887 53.4462 24.933 53.166C25.5773 52.8858 26.2723 52.7412 26.9749 52.7412C27.6775 52.7412 28.3725 52.8858 29.0168 53.166C29.6611 53.4462 30.2408 53.856 30.7199 54.3699C32.4167 55.991 34.6731 56.8956 37.0199 56.8956C39.3666 56.8956 41.6231 55.991 43.3199 54.3699C43.799 53.856 44.3787 53.4462 45.023 53.166C45.6673 52.8858 46.3623 52.7412 47.0649 52.7412C47.7675 52.7412 48.4625 52.8858 49.1068 53.166C49.7511 53.4462 50.3308 53.856 50.8099 54.3699C52.4975 56.0069 54.7587 56.9186 57.1099 56.9099C57.6403 56.9099 58.149 56.6992 58.5241 56.3241C58.8992 55.949 59.1099 55.4403 59.1099 54.9099C59.1099 54.3794 58.8992 53.8707 58.5241 53.4957C58.149 53.1206 57.6403 52.9099 57.1099 52.9099Z" fill="black"/>
</svg>
